<svg width="74" height="9" viewBox="0 0 74 9" fill="none" xmlns="http://www.w3.org/2000/svg">
<path d="M0 6.138V5.2855L2.53425 1.6585H3.7975V5.1925H4.4795V6.138H3.7975V7.2385H2.7125V6.138H0ZM2.78225 2.821L1.1935 5.1925H2.78225V2.821Z" fill="#575757"/>
<path d="M5.77478 7.29275C5.57845 7.29275 5.4157 7.23333 5.28653 7.1145C5.16253 6.9905 5.10053 6.83808 5.10053 6.65725C5.10053 6.47642 5.16253 6.32658 5.28653 6.20775C5.4157 6.08375 5.57845 6.02175 5.77478 6.02175C5.96595 6.02175 6.12353 6.08375 6.24753 6.20775C6.37153 6.32658 6.43353 6.47642 6.43353 6.65725C6.43353 6.83808 6.37153 6.9905 6.24753 7.1145C6.12353 7.23333 5.96595 7.29275 5.77478 7.29275Z" fill="#575757"/>
<path d="M8.43896 5.64975C8.4803 5.87708 8.5733 6.05275 8.71796 6.17675C8.8678 6.29558 9.06671 6.355 9.31471 6.355C9.63505 6.355 9.86755 6.22325 10.0122 5.95975C10.1569 5.69108 10.2292 5.24158 10.2292 4.61125C10.1104 4.77658 9.94246 4.90575 9.72546 4.99875C9.51363 5.09175 9.28371 5.13825 9.03571 5.13825C8.70505 5.13825 8.40538 5.07108 8.13671 4.93675C7.87321 4.79725 7.66396 4.59317 7.50896 4.3245C7.35396 4.05067 7.27646 3.72 7.27646 3.3325C7.27646 2.759 7.44696 2.30433 7.78796 1.9685C8.12896 1.6275 8.59396 1.457 9.18296 1.457C9.91663 1.457 10.4333 1.69208 10.733 2.16225C11.0378 2.63242 11.1902 3.34025 11.1902 4.28575C11.1902 4.95742 11.1308 5.50767 11.012 5.9365C10.8983 6.36533 10.6994 6.69083 10.4152 6.913C10.1362 7.13517 9.75388 7.24625 9.26821 7.24625C8.88588 7.24625 8.56038 7.17392 8.29171 7.02925C8.02305 6.87942 7.81638 6.68567 7.67171 6.448C7.53221 6.20517 7.45213 5.93908 7.43146 5.64975H8.43896ZM9.26046 4.25475C9.52913 4.25475 9.74096 4.17208 9.89596 4.00675C10.051 3.84142 10.1285 3.61925 10.1285 3.34025C10.1285 3.03542 10.0458 2.80033 9.88046 2.635C9.7203 2.4645 9.50071 2.37925 9.22171 2.37925C8.94271 2.37925 8.72055 2.46708 8.55521 2.64275C8.39505 2.81325 8.31496 3.04058 8.31496 3.32475C8.31496 3.59858 8.39246 3.82333 8.54746 3.999C8.70763 4.1695 8.9453 4.25475 9.26046 4.25475Z" fill="#575757"/>
<path d="M17.7276 8.68C17.2316 8.19433 16.8441 7.57692 16.5651 6.82775C16.2913 6.07858 16.1544 5.27 16.1544 4.402C16.1544 3.51333 16.2991 2.68408 16.5884 1.91425C16.8829 1.13925 17.3014 0.501167 17.8439 0H18.5801V0.0697496C18.0015 0.61225 17.5649 1.26583 17.2704 2.0305C16.9811 2.79 16.8364 3.5805 16.8364 4.402C16.8364 5.20283 16.9733 5.9675 17.2471 6.696C17.5261 7.4245 17.9317 8.06258 18.4639 8.61025V8.68H17.7276Z" fill="#575757"/>
<path d="M19.1312 2.2785V1.63525H20.5882V7.2385H19.8752V2.2785H19.1312Z" fill="#575757"/>
<path d="M22.1406 7.285C22.0063 7.285 21.8926 7.2385 21.7996 7.1455C21.7066 7.0525 21.6601 6.93883 21.6601 6.8045C21.6601 6.67017 21.7066 6.5565 21.7996 6.4635C21.8926 6.3705 22.0063 6.324 22.1406 6.324C22.2698 6.324 22.3783 6.3705 22.4661 6.4635C22.5591 6.5565 22.6056 6.67017 22.6056 6.8045C22.6056 6.93883 22.5591 7.0525 22.4661 7.1455C22.3783 7.2385 22.2698 7.285 22.1406 7.285Z" fill="#575757"/>
<path d="M24.3335 5.735C24.3852 6.0295 24.504 6.25683 24.69 6.417C24.8812 6.57717 25.137 6.65725 25.4573 6.65725C25.8861 6.65725 26.2013 6.48933 26.4028 6.1535C26.6095 5.81767 26.7076 5.25192 26.6973 4.45625C26.5888 4.68875 26.408 4.87217 26.1548 5.0065C25.9016 5.13567 25.62 5.20025 25.31 5.20025C24.9639 5.20025 24.6539 5.1305 24.38 4.991C24.1114 4.84633 23.8995 4.63708 23.7445 4.36325C23.5895 4.08942 23.512 3.75875 23.512 3.37125C23.512 2.81842 23.6722 2.37408 23.9925 2.03825C24.3129 1.69725 24.7675 1.52675 25.3565 1.52675C26.0799 1.52675 26.5862 1.76183 26.8755 2.232C27.17 2.70217 27.3173 3.40225 27.3173 4.33225C27.3173 4.98325 27.2579 5.52058 27.139 5.94425C27.0254 6.36792 26.829 6.69083 26.55 6.913C26.2762 7.13517 25.899 7.24625 25.4185 7.24625C24.8915 7.24625 24.4808 7.10417 24.1863 6.82C23.8918 6.53583 23.7239 6.17417 23.6825 5.735H24.3335ZM25.4263 4.6035C25.7725 4.6035 26.0566 4.49758 26.2788 4.28575C26.501 4.06875 26.612 3.77683 26.612 3.41C26.612 3.0225 26.5035 2.70992 26.2865 2.47225C26.0695 2.23458 25.7647 2.11575 25.372 2.11575C25.0104 2.11575 24.721 2.22942 24.504 2.45675C24.2922 2.68408 24.1863 2.98375 24.1863 3.35575C24.1863 3.73292 24.2922 4.03517 24.504 4.2625C24.7159 4.48983 25.0233 4.6035 25.4263 4.6035Z" fill="#575757"/>
<path d="M29.3314 4.3245C29.0421 4.21083 28.8199 4.0455 28.6649 3.8285C28.5099 3.6115 28.4324 3.348 28.4324 3.038C28.4324 2.759 28.5021 2.50842 28.6416 2.28625C28.7811 2.05892 28.9878 1.88067 29.2616 1.7515C29.5406 1.61717 29.8765 1.55 30.2691 1.55C30.6618 1.55 30.9951 1.61717 31.2689 1.7515C31.5479 1.88067 31.7571 2.05892 31.8966 2.28625C32.0413 2.50842 32.1136 2.759 32.1136 3.038C32.1136 3.33767 32.0336 3.60117 31.8734 3.8285C31.7132 4.05067 31.4936 4.216 31.2146 4.3245C31.535 4.42267 31.7881 4.59575 31.9741 4.84375C32.1653 5.08658 32.2609 5.38108 32.2609 5.72725C32.2609 6.06308 32.1782 6.35758 32.0129 6.61075C31.8476 6.85875 31.6125 7.0525 31.3076 7.192C31.008 7.32633 30.6618 7.3935 30.2691 7.3935C29.8765 7.3935 29.5303 7.32633 29.2306 7.192C28.9361 7.0525 28.7062 6.85875 28.5409 6.61075C28.3756 6.35758 28.2929 6.06308 28.2929 5.72725C28.2929 5.38108 28.3859 5.084 28.5719 4.836C28.7579 4.588 29.0111 4.4175 29.3314 4.3245ZM31.4316 3.12325C31.4316 2.80808 31.3283 2.56525 31.1216 2.39475C30.915 2.22425 30.6308 2.139 30.2691 2.139C29.9126 2.139 29.6311 2.22425 29.4244 2.39475C29.2177 2.56525 29.1144 2.81067 29.1144 3.131C29.1144 3.42033 29.2203 3.65283 29.4321 3.8285C29.6491 4.00417 29.9281 4.092 30.2691 4.092C30.6153 4.092 30.8943 4.00417 31.1061 3.8285C31.3231 3.64767 31.4316 3.41258 31.4316 3.12325ZM30.2691 4.6345C29.8868 4.6345 29.5742 4.72492 29.3314 4.90575C29.0886 5.08142 28.9671 5.3475 28.9671 5.704C28.9671 6.03467 29.0834 6.30075 29.3159 6.50225C29.5536 6.70375 29.8713 6.8045 30.2691 6.8045C30.667 6.8045 30.9821 6.70375 31.2146 6.50225C31.4471 6.30075 31.5634 6.03467 31.5634 5.704C31.5634 5.35783 31.4446 5.09433 31.2069 4.9135C30.9692 4.7275 30.6566 4.6345 30.2691 4.6345Z" fill="#575757"/>
<path d="M34.1043 5.735C34.156 6.0295 34.2748 6.25683 34.4608 6.417C34.652 6.57717 34.9077 6.65725 35.2281 6.65725C35.6569 6.65725 35.972 6.48933 36.1735 6.1535C36.3802 5.81767 36.4784 5.25192 36.468 4.45625C36.3595 4.68875 36.1787 4.87217 35.9255 5.0065C35.6724 5.13567 35.3908 5.20025 35.0808 5.20025C34.7346 5.20025 34.4246 5.1305 34.1508 4.991C33.8821 4.84633 33.6703 4.63708 33.5153 4.36325C33.3603 4.08942 33.2828 3.75875 33.2828 3.37125C33.2828 2.81842 33.443 2.37408 33.7633 2.03825C34.0836 1.69725 34.5383 1.52675 35.1273 1.52675C35.8506 1.52675 36.357 1.76183 36.6463 2.232C36.9408 2.70217 37.0881 3.40225 37.0881 4.33225C37.0881 4.98325 37.0286 5.52058 36.9098 5.94425C36.7961 6.36792 36.5998 6.69083 36.3208 6.913C36.047 7.13517 35.6698 7.24625 35.1893 7.24625C34.6623 7.24625 34.2515 7.10417 33.9571 6.82C33.6625 6.53583 33.4946 6.17417 33.4533 5.735H34.1043ZM35.197 4.6035C35.5432 4.6035 35.8274 4.49758 36.0495 4.28575C36.2717 4.06875 36.3828 3.77683 36.3828 3.41C36.3828 3.0225 36.2743 2.70992 36.0573 2.47225C35.8403 2.23458 35.5355 2.11575 35.1428 2.11575C34.7811 2.11575 34.4918 2.22942 34.2748 2.45675C34.063 2.68408 33.9571 2.98375 33.9571 3.35575C33.9571 3.73292 34.063 4.03517 34.2748 4.2625C34.4866 4.48983 34.794 4.6035 35.197 4.6035Z" fill="#575757"/>
<path d="M43.1058 7.2385L41.8193 5.02975H40.9668V7.2385H40.2616V1.83675H42.0053C42.4135 1.83675 42.757 1.9065 43.036 2.046C43.3202 2.1855 43.5321 2.37408 43.6716 2.61175C43.8111 2.84942 43.8808 3.12067 43.8808 3.4255C43.8808 3.7975 43.7723 4.12558 43.5553 4.40975C43.3435 4.69392 43.0231 4.8825 42.5943 4.9755L43.9506 7.2385H43.1058ZM40.9668 4.464H42.0053C42.3876 4.464 42.6744 4.371 42.8656 4.185C43.0567 3.99383 43.1523 3.74067 43.1523 3.4255C43.1523 3.10517 43.0567 2.85717 42.8656 2.6815C42.6796 2.50583 42.3928 2.418 42.0053 2.418H40.9668V4.464Z" fill="#575757"/>
<path d="M48.8516 4.95225C48.8516 5.08658 48.8439 5.22867 48.8284 5.3785H45.4339C45.4597 5.797 45.6018 6.12508 45.8601 6.36275C46.1236 6.59525 46.4414 6.7115 46.8134 6.7115C47.1182 6.7115 47.3714 6.64175 47.5729 6.50225C47.7796 6.35758 47.9242 6.16642 48.0069 5.92875H48.7664C48.6527 6.33692 48.4254 6.67017 48.0844 6.9285C47.7434 7.18167 47.3197 7.30825 46.8134 7.30825C46.4104 7.30825 46.0487 7.21783 45.7284 7.037C45.4132 6.85617 45.1652 6.60042 44.9844 6.26975C44.8036 5.93392 44.7131 5.54642 44.7131 5.10725C44.7131 4.66808 44.801 4.28317 44.9766 3.9525C45.1523 3.62183 45.3977 3.36867 45.7129 3.193C46.0332 3.01217 46.4001 2.92175 46.8134 2.92175C47.2164 2.92175 47.5729 3.00958 47.8829 3.18525C48.1929 3.36092 48.4306 3.60375 48.5959 3.91375C48.7664 4.21858 48.8516 4.56475 48.8516 4.95225ZM48.1231 4.805C48.1231 4.53633 48.0637 4.30642 47.9449 4.11525C47.826 3.91892 47.6633 3.77167 47.4566 3.6735C47.2551 3.57017 47.0304 3.5185 46.7824 3.5185C46.4259 3.5185 46.1211 3.63217 45.8679 3.8595C45.6199 4.08683 45.4778 4.402 45.4416 4.805H48.1231Z" fill="#575757"/>
<path d="M51.3635 6.5875L52.681 2.9915H53.4328L51.7665 7.2385H50.945L49.2788 2.9915H50.0383L51.3635 6.5875Z" fill="#575757"/>
<path d="M54.491 2.30175C54.3567 2.30175 54.243 2.25525 54.15 2.16225C54.057 2.06925 54.0105 1.95558 54.0105 1.82125C54.0105 1.68692 54.057 1.57325 54.15 1.48025C54.243 1.38725 54.3567 1.34075 54.491 1.34075C54.6202 1.34075 54.7287 1.38725 54.8165 1.48025C54.9095 1.57325 54.956 1.68692 54.956 1.82125C54.956 1.95558 54.9095 2.06925 54.8165 2.16225C54.7287 2.25525 54.6202 2.30175 54.491 2.30175ZM54.832 2.9915V7.2385H54.1268V2.9915H54.832Z" fill="#575757"/>
<path d="M59.909 4.95225C59.909 5.08658 59.9013 5.22867 59.8858 5.3785H56.4913C56.5171 5.797 56.6592 6.12508 56.9175 6.36275C57.181 6.59525 57.4988 6.7115 57.8708 6.7115C58.1756 6.7115 58.4288 6.64175 58.6303 6.50225C58.8369 6.35758 58.9816 6.16642 59.0643 5.92875H59.8238C59.7101 6.33692 59.4828 6.67017 59.1418 6.9285C58.8008 7.18167 58.3771 7.30825 57.8708 7.30825C57.4678 7.30825 57.1061 7.21783 56.7858 7.037C56.4706 6.85617 56.2226 6.60042 56.0418 6.26975C55.8609 5.93392 55.7705 5.54642 55.7705 5.10725C55.7705 4.66808 55.8583 4.28317 56.034 3.9525C56.2097 3.62183 56.4551 3.36867 56.7703 3.193C57.0906 3.01217 57.4574 2.92175 57.8708 2.92175C58.2738 2.92175 58.6303 3.00958 58.9403 3.18525C59.2503 3.36092 59.4879 3.60375 59.6533 3.91375C59.8238 4.21858 59.909 4.56475 59.909 4.95225ZM59.1805 4.805C59.1805 4.53633 59.1211 4.30642 59.0023 4.11525C58.8834 3.91892 58.7207 3.77167 58.514 3.6735C58.3125 3.57017 58.0878 3.5185 57.8398 3.5185C57.4833 3.5185 57.1784 3.63217 56.9253 3.8595C56.6773 4.08683 56.5352 4.402 56.499 4.805H59.1805Z" fill="#575757"/>
<path d="M66.4974 2.9915L65.1722 7.2385H64.4437L63.4207 3.86725L62.3977 7.2385H61.6692L60.3362 2.9915H61.0569L62.0334 6.5565L63.0874 2.9915H63.8082L64.8389 6.56425L65.7999 2.9915H66.4974Z" fill="#575757"/>
<path d="M68.7008 7.30825C68.3753 7.30825 68.0834 7.254 67.8251 7.1455C67.5668 7.03183 67.3627 6.87683 67.2128 6.6805C67.063 6.479 66.9803 6.24908 66.9648 5.99075H67.6933C67.714 6.20258 67.8122 6.37567 67.9878 6.51C68.1687 6.64433 68.4038 6.7115 68.6931 6.7115C68.9618 6.7115 69.1736 6.65208 69.3286 6.53325C69.4836 6.41442 69.5611 6.26458 69.5611 6.08375C69.5611 5.89775 69.4784 5.76083 69.3131 5.673C69.1478 5.58 68.892 5.48958 68.5458 5.40175C68.2307 5.31908 67.9723 5.23642 67.7708 5.15375C67.5745 5.06592 67.404 4.93933 67.2593 4.774C67.1198 4.6035 67.0501 4.38133 67.0501 4.1075C67.0501 3.8905 67.1147 3.69158 67.2438 3.51075C67.373 3.32992 67.5564 3.18783 67.7941 3.0845C68.0318 2.976 68.303 2.92175 68.6078 2.92175C69.078 2.92175 69.4578 3.04058 69.7471 3.27825C70.0364 3.51592 70.1914 3.84142 70.2121 4.25475H69.5068C69.4913 4.03258 69.4009 3.85433 69.2356 3.72C69.0754 3.58567 68.8584 3.5185 68.5846 3.5185C68.3314 3.5185 68.1299 3.57275 67.9801 3.68125C67.8303 3.78975 67.7553 3.93183 67.7553 4.1075C67.7553 4.247 67.7993 4.36325 67.8871 4.45625C67.9801 4.54408 68.0938 4.61642 68.2281 4.67325C68.3676 4.72492 68.5588 4.78433 68.8016 4.8515C69.1064 4.93417 69.3544 5.01683 69.5456 5.0995C69.7368 5.177 69.8995 5.29583 70.0338 5.456C70.1733 5.61617 70.2457 5.82542 70.2508 6.08375C70.2508 6.31625 70.1863 6.5255 70.0571 6.7115C69.9279 6.8975 69.7445 7.04475 69.5068 7.15325C69.2743 7.25658 69.0057 7.30825 68.7008 7.30825Z" fill="#575757"/>
<path d="M71.0217 8.68V8.61025C71.5538 8.06258 71.9568 7.4245 72.2307 6.696C72.5097 5.9675 72.6492 5.20283 72.6492 4.402C72.6492 3.5805 72.5019 2.79 72.2074 2.0305C71.9181 1.26583 71.4841 0.61225 70.9054 0.0697496V0H71.6417C72.1842 0.501167 72.6001 1.13925 72.8894 1.91425C73.1839 2.68408 73.3312 3.51333 73.3312 4.402C73.3312 5.27 73.1917 6.07858 72.9127 6.82775C72.6388 7.57692 72.2539 8.19433 71.7579 8.68H71.0217Z" fill="#575757"/>
</svg>
