<svg width="68" height="47" viewBox="0 0 68 47" fill="none" xmlns="http://www.w3.org/2000/svg">
<path d="M2.06807 46.9563H2.65876L2.66154 46.3182C3.85686 46.2318 4.54228 45.5743 4.54506 44.6409C4.54228 43.6517 3.7259 43.2003 2.86773 42.997L2.68383 42.9496L2.69498 41.3586C3.14078 41.4366 3.42777 41.7041 3.47235 42.1053H4.46705C4.45033 41.2193 3.75376 40.5729 2.70055 40.4726L2.70334 39.8234H2.11265L2.10986 40.4726C1.06501 40.5785 0.312712 41.2193 0.315498 42.1416C0.315498 42.9607 0.89783 43.4316 1.8368 43.674L2.08757 43.7381L2.07642 45.4238C1.57768 45.3458 1.21825 45.0616 1.18203 44.5573H0.165039C0.204047 45.6021 0.922906 46.2235 2.07085 46.3182L2.06807 46.9563ZM2.66711 45.4238L2.67826 43.8941C3.18536 44.0418 3.50857 44.2368 3.51136 44.6325C3.50857 45.0449 3.177 45.3402 2.66711 45.4238ZM2.09314 42.7991C1.70864 42.6765 1.35757 42.4731 1.36314 42.0775C1.36592 41.718 1.63619 41.4394 2.10429 41.3586L2.09314 42.7991Z" fill="#302F3C"/>
<path d="M8.67525 37.5665C6.81959 37.554 5.58666 38.8287 5.58666 40.5004C5.59084 42.1137 6.74018 43.2798 8.24059 43.2798C9.16424 43.2798 9.96668 42.8326 10.3804 42.097H10.439C10.4348 43.9276 9.77025 45.0184 8.58748 45.0184C7.84772 45.0184 7.35037 44.5921 7.19573 43.9108H5.67025C5.84578 45.3277 6.96587 46.36 8.58748 46.36C10.6396 46.36 11.9477 44.6464 11.9435 41.6999C11.9394 38.5821 10.3178 37.5749 8.67525 37.5665ZM8.67943 38.8203C9.59472 38.8203 10.2676 39.581 10.2676 40.4545C10.2718 41.3405 9.56546 42.1012 8.66271 42.1012C7.7516 42.1012 7.09543 41.3823 7.09125 40.467C7.09125 39.5475 7.77249 38.8203 8.67943 38.8203Z" fill="#302F3C"/>
<path d="M14.0096 46.3349C14.5027 46.3349 14.9249 45.9253 14.929 45.4154C14.9249 44.9139 14.5027 44.5043 14.0096 44.5043C13.4997 44.5043 13.0859 44.9139 13.0901 45.4154C13.0859 45.9253 13.4997 46.3349 14.0096 46.3349Z" fill="#302F3C"/>
<path d="M19.4055 46.36C21.2152 46.36 22.4774 45.1312 22.4774 43.4302C22.4774 41.7835 21.3322 40.5966 19.7775 40.5966C19.0837 40.5966 18.4693 40.8724 18.1517 41.2486H18.1015L18.3481 38.9791H22.0302V37.6835H17.065L16.6178 42.097L18.018 42.3269C18.3063 42.0092 18.8497 41.7961 19.3637 41.8002C20.3041 41.8044 20.9812 42.4982 20.977 43.4678C20.9812 44.4249 20.3208 45.1062 19.4055 45.1062C18.6323 45.1062 18.0096 44.6172 17.9553 43.915H16.4507C16.4925 45.336 17.7338 46.36 19.4055 46.36Z" fill="#302F3C"/>
<path d="M27.1002 46.406C29.1648 46.4101 30.3977 44.7802 30.3977 41.9716C30.3977 39.1798 29.1564 37.5665 27.1002 37.5665C25.0439 37.5665 23.8068 39.1756 23.8026 41.9716C23.8026 44.776 25.0355 46.406 27.1002 46.406ZM27.1002 45.0978C26.0344 45.0978 25.3657 44.0279 25.3699 41.9716C25.3741 39.932 26.0386 38.8579 27.1002 38.8579C28.1659 38.8579 28.8304 39.932 28.8346 41.9716C28.8346 44.0279 28.1701 45.0978 27.1002 45.0978Z" fill="#302F3C"/>
<path d="M3.73107 17.4727L4.88403 19.8088L7.46214 20.1834L5.5966 22.0019L6.03699 24.5696L3.73107 23.3573L1.42514 24.5696L1.86553 22.0019L0 20.1834L2.5781 19.8088L3.73107 17.4727Z" fill="#FDC55E"/>
<path d="M16.1539 17.4727L17.3069 19.8088L19.885 20.1834L18.0195 22.0019L18.4598 24.5696L16.1539 23.3573L13.848 24.5696L14.2884 22.0019L12.4229 20.1834L15.001 19.8088L16.1539 17.4727Z" fill="#FDC55E"/>
<path d="M28.5768 17.4727L29.7297 19.8088L32.3078 20.1834L30.4423 22.0019L30.8827 24.5696L28.5768 23.3573L26.2708 24.5696L26.7112 22.0019L24.8457 20.1834L27.4238 19.8088L28.5768 17.4727Z" fill="#FDC55E"/>
<path d="M41.0006 17.4727L42.1536 19.8088L44.7317 20.1834L42.8661 22.0019L43.3065 24.5696L41.0006 23.3573L38.6947 24.5696L39.1351 22.0019L37.2695 20.1834L39.8476 19.8088L41.0006 17.4727Z" fill="#FDC55E"/>
<path fill-rule="evenodd" clip-rule="evenodd" d="M54.5764 19.8088L53.4235 17.4727L52.2705 19.8088L49.6924 20.1834L51.5579 22.0019L51.1175 24.5696L53.4235 23.3573L55.7294 24.5696L55.289 22.0019L57.1545 20.1834L54.5764 19.8088ZM55.7494 20.64L54.1422 20.4064L53.4235 18.9501L52.7047 20.4064L51.0975 20.64L52.2605 21.7736L51.9859 23.3743L53.4235 22.6186L54.861 23.3743L54.5864 21.7736L55.7494 20.64Z" fill="#FDC55E"/>
<path d="M2.20291 0.413762H0.652344V8.9732H2.20291V0.413762Z" fill="#2E2E2E"/>
<path d="M7.07957 2.55362H5.81321V1.0156H4.30026V2.55362H3.38915V3.72386H4.30026V7.29308C4.2919 8.50093 5.16958 9.09441 6.30638 9.06097C6.73686 9.04843 7.0336 8.96484 7.1966 8.91051L6.94165 7.72774C6.85806 7.74863 6.68671 7.78625 6.49863 7.78625C6.11831 7.78625 5.81321 7.65251 5.81321 7.04231V3.72386H7.07957V2.55362Z" fill="#2E2E2E"/>
<path d="M10.251 9.10276C11.2583 9.10276 11.8601 8.63049 12.136 8.09135H12.1861V8.9732H13.6405V4.67676C13.6405 2.97992 12.2572 2.47003 11.0326 2.47003C9.68264 2.47003 8.64614 3.07187 8.31179 4.24211L9.72443 4.44272C9.87489 4.00388 10.3012 3.62773 11.0409 3.62773C11.7431 3.62773 12.1276 3.98716 12.1276 4.61825V4.64333C12.1276 5.07799 11.672 5.09889 10.5394 5.22009C9.29395 5.35383 8.10282 5.7258 8.10282 7.17188C8.10282 8.43406 9.02647 9.10276 10.251 9.10276ZM10.6439 7.99104C10.0128 7.99104 9.56143 7.70266 9.56143 7.1468C9.56143 6.56586 10.0671 6.32345 10.7442 6.22733C11.1413 6.17299 11.9353 6.07269 12.1318 5.91387V6.67034C12.1318 7.38502 11.555 7.99104 10.6439 7.99104Z" fill="#2E2E2E"/>
<path d="M16.7336 0.413762H15.2207V8.9732H16.7336V0.413762Z" fill="#2E2E2E"/>
<path d="M18.3483 8.9732H19.8612V2.55362H18.3483V8.9732ZM19.1089 1.64251C19.5896 1.64251 19.9824 1.27472 19.9824 0.823345C19.9824 0.367789 19.5896 0 19.1089 0C18.6241 0 18.2313 0.367789 18.2313 0.823345C18.2313 1.27472 18.6241 1.64251 19.1089 1.64251Z" fill="#2E2E2E"/>
<path d="M23.3232 9.10276C24.3304 9.10276 24.9322 8.63049 25.2081 8.09135H25.2582V8.9732H26.7127V4.67676C26.7127 2.97992 25.3293 2.47003 24.1047 2.47003C22.7548 2.47003 21.7183 3.07187 21.3839 4.24211L22.7966 4.44272C22.947 4.00388 23.3733 3.62773 24.1131 3.62773C24.8152 3.62773 25.1997 3.98716 25.1997 4.61825V4.64333C25.1997 5.07799 24.7442 5.09889 23.6115 5.22009C22.3661 5.35383 21.1749 5.7258 21.1749 7.17188C21.1749 8.43406 22.0986 9.10276 23.3232 9.10276ZM23.716 7.99104C23.0849 7.99104 22.6336 7.70266 22.6336 7.1468C22.6336 6.56586 23.1393 6.32345 23.8163 6.22733C24.2134 6.17299 25.0075 6.07269 25.2039 5.91387V6.67034C25.2039 7.38502 24.6271 7.99104 23.716 7.99104Z" fill="#2E2E2E"/>
<path d="M29.8058 5.21173C29.8058 4.2839 30.3658 3.74893 31.1641 3.74893C31.9456 3.74893 32.4137 4.263 32.4137 5.11978V8.9732H33.9267V4.88574C33.9308 3.34771 33.0532 2.47003 31.7283 2.47003C30.767 2.47003 30.1067 2.92977 29.8141 3.64445H29.7389V2.55362H28.2928V8.9732H29.8058V5.21173Z" fill="#2E2E2E"/>
<path d="M38.5686 8.9732H40.1191V6.08105H41.7575C43.7343 6.08105 44.7959 4.89409 44.7959 3.24741C44.7959 1.61325 43.7469 0.413762 41.7784 0.413762H38.5686V8.9732ZM40.1191 4.80633V1.70938H41.5401C42.702 1.70938 43.2161 2.33629 43.2161 3.24741C43.2161 4.15852 42.702 4.80633 41.5485 4.80633H40.1191Z" fill="#2E2E2E"/>
<path d="M46.1347 8.9732H47.6476V2.55362H46.1347V8.9732ZM46.8953 1.64251C47.376 1.64251 47.7688 1.27472 47.7688 0.823345C47.7688 0.367789 47.376 0 46.8953 0C46.4105 0 46.0177 0.367789 46.0177 0.823345C46.0177 1.27472 46.4105 1.64251 46.8953 1.64251Z" fill="#2E2E2E"/>
<path d="M49.1787 8.9732H54.4489V7.71938H51.189V7.66505L54.3403 3.58594V2.55362H49.2874V3.80745H52.4888V3.86178L49.1787 8.01194V8.9732Z" fill="#2E2E2E"/>
<path d="M55.8462 8.9732H61.1165V7.71938H57.8565V7.66505L61.0078 3.58594V2.55362H55.9549V3.80745H59.1563V3.86178L55.8462 8.01194V8.9732Z" fill="#2E2E2E"/>
<path d="M64.4447 9.10276C65.4519 9.10276 66.0537 8.63049 66.3296 8.09135H66.3797V8.9732H67.8342V4.67676C67.8342 2.97992 66.4508 2.47003 65.2262 2.47003C63.8763 2.47003 62.8398 3.07187 62.5054 4.24211L63.9181 4.44272C64.0685 4.00388 64.4948 3.62773 65.2346 3.62773C65.9367 3.62773 66.3212 3.98716 66.3212 4.61825V4.64333C66.3212 5.07799 65.8657 5.09889 64.733 5.22009C63.4876 5.35383 62.2964 5.7258 62.2964 7.17188C62.2964 8.43406 63.2201 9.10276 64.4447 9.10276ZM64.8375 7.99104C64.2064 7.99104 63.7551 7.70266 63.7551 7.1468C63.7551 6.56586 64.2608 6.32345 64.9378 6.22733C65.3349 6.17299 66.129 6.07269 66.3254 5.91387V6.67034C66.3254 7.38502 65.7486 7.99104 64.8375 7.99104Z" fill="#2E2E2E"/>
</svg>
