<svg width="160" height="188" viewBox="0 0 160 188" fill="none" xmlns="http://www.w3.org/2000/svg">
<g opacity="0.3" filter="url(#filter0_f_111_408)">
<path d="M35.3316 112.58C31.9234 112.809 29.2922 111.661 28.1204 108.309C26.9555 104.989 28.3574 102.258 31.2547 99.6259C27.7386 98.4612 24.9835 96.7617 24.9564 92.7893C24.9341 89.3828 26.8178 87.2043 29.8085 85.8125C30.1227 85.7286 30.4302 85.6553 30.7444 85.5714C32.3603 85.4106 34.1429 85.3799 35.2521 86.4278C37.2832 88.338 37.5597 86.9464 38.7686 85.2971C40.4294 83.0123 40.7977 81.8929 38.0074 80.7351C36.993 80.3077 36.4599 78.8005 35.7156 77.7861C35.6223 77.3397 35.5291 76.8934 35.4293 76.4574C35.5645 73.262 36.6553 70.5883 39.7917 69.1838C43.2715 67.6265 45.9837 68.9535 48.5924 71.7481C49.8266 68.0062 51.7317 65.2198 55.6435 64.9785C58.9891 64.7837 61.0391 66.5754 62.2372 69.5109C62.3028 69.825 62.3584 70.1331 62.4241 70.4472C62.1479 71.8824 62.3392 73.7165 61.5153 74.6607C59.3001 77.2157 60.8997 77.4782 62.6704 78.7685C64.8012 80.3205 65.39 79.7967 66.5855 77.7496C67.2583 76.5838 68.8436 75.9424 70.0192 75.0526C70.3498 74.9644 70.687 74.8656 71.0177 74.7774C74.4617 74.469 77.0732 75.6482 78.2646 78.9695C79.446 82.2848 78.1172 85.0308 75.233 87.6422C78.5711 88.9155 81.4543 90.4761 81.4818 94.4921C81.504 97.8985 79.6403 100.089 76.6964 101.538C76.3162 101.64 75.9425 101.731 75.5722 101.838C74.1652 101.62 72.4075 101.854 71.4266 101.086C69.3081 99.4261 68.8084 100.293 67.5698 102.342C66.3704 104.33 65.672 105.206 68.1605 106.339C69.2983 106.856 69.8725 108.518 70.694 109.651C70.7735 110.031 70.8529 110.412 70.9423 110.798C70.9781 114.227 69.6989 116.96 66.3533 118.324C63.0309 119.674 60.3705 118.595 57.9764 115.699C56.5427 119.363 54.5725 122.298 50.4974 122.426C47.3664 122.52 45.4163 120.789 44.1804 118.09C44.0803 117.611 43.9901 117.137 43.8834 116.668C43.8496 114.251 44.7695 112.138 46.3414 110.304C43.3889 107.994 40.6817 106.483 38.2454 111.113C37.9519 111.671 37.0326 111.908 36.3962 112.287C36.026 112.395 35.6788 112.487 35.3316 112.58ZM56.9644 111.649C55.8614 109.378 61.9811 108.05 57.9168 105.556C55.8447 104.285 54.8907 104.732 53.6486 106.765C51.0302 111.025 56.9725 109.099 56.9644 111.649ZM35.2956 98.5822C37.4254 97.6646 39.119 103.933 41.666 98.2868C43.6859 93.7941 39.1373 95.5407 38.4152 93.6301C37.9058 95.7036 36.4038 96.7852 35.2956 98.5822ZM71.2681 89.0496C66.1142 86.6464 66.2211 86.7401 65.3488 87.8282C62.3354 91.6174 66.1366 92.0165 68.0163 94.037C68.5203 91.7293 70.0178 90.5005 71.2681 89.0496ZM49.5895 75.6013C48.7084 77.6081 47.8909 79.2925 46.5094 80.9093C48.6167 80.469 49.3625 85.166 52.3755 81.3333C56.0967 76.5872 49.4918 78.1408 49.5895 75.6013ZM51.5403 92.2473C50.9467 93.3745 49.1994 94.4519 51.5827 95.2906C52.7893 95.7191 53.6714 97.3512 54.9432 94.9172C55.8107 93.263 56.1166 92.5967 54.3158 91.6635C52.9643 90.9595 52.1199 90.2598 51.5403 92.2473Z" fill="#F54748"/>
<path d="M61.8492 71.0327C61.7836 70.7186 61.7279 70.4105 61.6622 70.0964C61.7892 69.8269 61.9957 69.5623 62.043 69.2879C62.5855 65.7046 64.2194 62.9996 68.0328 62.4535C71.1344 62.01 73.4498 63.3995 74.4626 66.3235C75.7099 69.9093 73.9995 72.5823 71.0282 74.6929C70.8009 74.8582 70.6444 75.1531 70.4575 75.3862C70.1268 75.4745 69.7896 75.5732 69.4589 75.6614C66.2367 75.1945 63.7111 73.6341 61.8492 71.0327Z" fill="#F54748"/>
<path d="M71.5313 111.382C71.4518 111.002 71.3723 110.621 71.2828 110.235C71.8414 106.979 73.4828 104.395 76.1601 102.424C76.5404 102.322 76.9141 102.231 77.2843 102.124C78.2573 102.353 79.2496 102.507 80.1837 102.842C82.8266 103.795 84.4728 105.616 84.4556 108.623C84.4361 111.368 83.122 113.473 80.654 114.734C77.9483 116.11 75.5402 115.487 73.4858 113.592C72.7577 112.948 72.1774 112.134 71.5313 111.382Z" fill="#F54748"/>
<path d="M44.4625 116.095C44.5627 116.575 44.6529 117.048 44.7597 117.517C44.5404 118.221 44.3146 118.936 44.0853 119.634C43.1235 122.631 41.2788 124.703 38.0797 124.972C35.1455 125.214 32.9863 123.861 31.9454 121.137C30.8196 118.173 31.9213 115.636 34.2592 113.503C34.8084 112.999 35.3775 112.506 35.9266 112.002C36.2738 111.909 36.6274 111.806 36.9746 111.714C40.1132 112.116 42.5723 113.65 44.4625 116.095Z" fill="#F54748"/>
<path d="M30.1597 84.9978C29.8455 85.0817 29.5379 85.155 29.2238 85.2388C25.6343 84.4336 22.1002 83.5177 21.9836 78.8276C21.9104 76.0981 23.2076 73.9543 25.6923 72.6893C29.9391 70.5439 32.4567 73.1099 34.8666 75.8704C34.96 76.3168 35.0533 76.7631 35.1532 77.199C34.475 80.4256 32.7506 82.9888 30.1597 84.9978Z" fill="#F54748"/>
<path d="M73.0593 128.622C71.3213 131.538 67.2214 132.632 64.5057 130.913C61.9299 129.279 61.118 125.437 62.781 122.664C64.5255 119.737 68.6088 118.648 71.3346 120.373C73.8938 122.011 74.7057 125.853 73.0593 128.622Z" fill="#F54748"/>
<path d="M14.7759 100.269C12.0378 98.6523 11.2171 94.5602 13.0789 91.7771C14.8522 89.1136 18.6615 88.1321 21.2697 89.6703C24.0078 91.2873 24.8285 95.3794 22.9667 98.1625C21.2034 100.832 17.384 101.807 14.7759 100.269Z" fill="#F54748"/>
<path d="M26.3968 111.265C24.7283 114.18 20.6586 115.335 17.92 113.675C15.3314 112.105 14.4733 108.293 16.0568 105.515C17.7252 102.6 21.795 101.444 24.5335 103.105C27.1321 104.681 27.9967 108.482 26.3968 111.265Z" fill="#F54748"/>
<path d="M84.7674 97.5202C82.1202 95.6696 81.5741 91.5132 83.6257 88.8453C85.6084 86.2656 89.486 85.5278 91.9498 87.2528C94.5971 89.1033 95.1367 93.2703 93.0916 95.9277C91.1189 98.5134 87.2413 99.2512 84.7674 97.5202Z" fill="#F54748"/>
<path d="M41.5953 56.3325C44.2192 57.7792 45.2225 61.5344 43.7325 64.3841C42.1937 67.3341 38.1652 68.6445 35.3549 67.0992C32.5746 65.5721 31.6482 61.517 33.443 58.6646C35.1463 55.9587 38.9414 54.8676 41.5953 56.3325Z" fill="#F54748"/>
<path d="M90.2091 82.0608C88.4012 84.9342 84.2905 85.935 81.6471 84.1444C79.1171 82.4371 78.4013 78.5963 80.1177 75.8695C81.9256 72.9961 86.0363 71.9953 88.6797 73.7859C91.2097 75.4932 91.919 79.3444 90.2091 82.0608Z" fill="#F54748"/>
<path d="M55.2199 53.2531C57.9419 54.9181 58.703 59.0174 56.8013 61.7763C54.9814 64.4261 51.1516 65.3519 48.586 63.7674C45.864 62.1024 45.103 58.0031 46.9947 55.2381C48.818 52.6048 52.6544 51.6686 55.2199 53.2531Z" fill="#F54748"/>
<path d="M59.5889 131.851C57.8309 134.755 53.7405 135.812 51.0479 134.078C48.4851 132.423 47.7097 128.589 49.3862 125.838C51.1441 122.934 55.2245 121.872 57.9207 123.622C60.4834 125.277 61.2553 129.094 59.5889 131.851Z" fill="#F54748"/>
<path d="M19.934 118.672C22.2139 115.925 24.8336 115.305 27.6926 117.082C30.4218 118.78 30.9008 122.449 28.7463 125.127C26.4868 127.929 23.7395 128.357 21.0215 126.42C18.2502 124.436 18.1701 121.673 19.934 118.672Z" fill="#F54748"/>
<path d="M78.2455 127.381C75.5509 125.387 74.8561 122.815 76.612 119.694C78.2863 116.725 81.963 115.779 84.5903 117.661C87.3311 119.626 87.8652 122.389 85.9225 125.368C83.9768 128.374 81.2505 128.857 78.2455 127.381Z" fill="#F54748"/>
<path d="M19.5228 84.3167C17.4329 87.1784 14.8327 88.1426 11.881 86.3817C8.95927 84.6389 8.33234 81.8911 10.2017 78.809C12.0744 75.7434 14.8287 74.9737 17.7701 76.685C20.7349 78.425 21.1195 81.1415 19.5228 84.3167Z" fill="#F54748"/>
<path d="M45.8189 134.858C43.7586 137.694 41.1388 138.69 38.1813 137.027C35.2603 135.371 34.5872 132.653 36.227 129.475C37.7918 126.439 41.4551 125.383 44.1484 127.161C46.9752 129.034 47.4056 131.677 45.8189 134.858Z" fill="#F54748"/>
<path d="M88.401 110.715C85.7291 108.662 85.0904 106.066 86.8963 102.975C88.6206 100.037 92.3176 99.1468 94.9058 101.091C97.6073 103.119 98.0818 105.89 96.1057 108.834C94.0935 111.814 91.3599 112.22 88.401 110.715Z" fill="#F54748"/>
<path d="M28.2912 60.1565C30.9205 62.256 31.5365 64.9101 29.5242 67.8902C27.5054 70.8808 24.6972 71.4729 21.8745 69.617C19.0218 67.7429 18.5999 64.9323 20.5857 61.9506C22.5976 58.9269 25.325 58.5745 28.2912 60.1565Z" fill="#F54748"/>
<path d="M70.0994 58.0526C67.7952 61.0587 65.1513 61.9387 62.2553 60.1105C59.3693 58.2883 58.8282 55.4914 60.7774 52.4578C62.7267 49.4242 65.5248 48.7388 68.4204 50.5234C71.366 52.3384 71.5753 55.0929 70.0994 58.0526Z" fill="#F54748"/>
<path d="M86.6194 68.4422C84.486 71.2631 81.9077 72.0819 78.9437 70.429C76.1096 68.8548 75.4287 65.2225 77.4698 62.4611C79.5828 59.5846 82.3217 58.9498 85.138 60.7731C87.9844 62.6145 88.2664 65.3409 86.6194 68.4422Z" fill="#F54748"/>
<path d="M5.13024 116.146C2.77168 114.297 1.94887 111.864 3.56235 109.148C5.17928 106.448 7.86326 105.679 10.4406 107.155C13.028 108.638 13.6343 111.329 12.0339 114.025C10.4404 116.753 7.86298 117.197 5.13024 116.146Z" fill="#F54748"/>
<path d="M24.8928 139.785C22.5807 137.95 21.7479 135.511 23.3679 132.784C24.9914 130.074 27.7019 129.307 30.2857 130.773C32.8831 132.261 33.4929 134.969 31.8959 137.681C30.2828 140.441 27.6989 140.895 24.8928 139.785Z" fill="#F54748"/>
<path d="M97.8641 114.947C99.8908 116.71 100.551 119.074 99.0235 121.828C97.6333 124.32 93.7739 125.227 91.7181 123.533C89.4519 121.668 89.0062 119.161 90.6432 116.473C92.0284 114.166 95.5349 113.448 97.8641 114.947Z" fill="#F54748"/>
<path d="M15.9164 70.6617C13.7868 73.1675 11.3149 74.0365 8.81168 72.4175C6.32846 70.8107 5.80804 68.1129 7.52893 65.4892C9.24329 62.876 11.9424 62.217 14.4487 63.8089C16.9749 65.4129 17.1166 68.011 15.9164 70.6617Z" fill="#F54748"/>
<path d="M81.4897 47.6019C83.7983 49.4203 84.6211 51.8533 82.9877 54.5578C81.3707 57.2578 78.6767 58.0201 76.1059 56.5334C73.525 55.0406 72.9287 52.3553 74.5291 49.6597C76.1426 46.9431 78.71 46.4937 81.4897 47.6019Z" fill="#F54748"/>
<path d="M52.9989 47.5968C51.0908 50.0348 48.6628 50.988 46.0747 49.5053C43.503 48.0181 42.8934 45.3529 44.4878 42.667C46.0887 39.9706 48.767 39.2124 51.3352 40.683C53.9299 42.1553 54.2469 44.7153 52.9989 47.5968Z" fill="#F54748"/>
<path d="M61.9308 144.958C59.8566 147.353 57.3652 148.254 54.842 146.623C52.3388 145.004 51.8115 142.273 53.5455 139.628C55.2829 137 58.0115 136.316 60.5312 137.93C63.0674 139.54 63.2822 142.154 61.9308 144.958Z" fill="#F54748"/>
<path d="M101.33 71.2298C103.642 73.0648 104.475 75.5038 102.855 78.2308C101.231 80.9413 98.5209 81.7081 95.9335 80.2258C93.3361 78.7374 92.7328 76.019 94.3397 73.3129C95.9398 70.5738 98.5238 70.1199 101.33 71.2298Z" fill="#F54748"/>
<path d="M7.35031 93.6865C9.71689 95.6988 10.4405 98.1583 8.70369 100.786C6.98993 103.398 4.29527 104.073 1.78983 102.482C-0.699072 100.886 -1.20931 98.1951 0.491012 95.5602C2.22093 92.8999 4.78633 92.6081 7.35031 93.6865Z" fill="#F54748"/>
<path d="M99.0458 93.7238C96.7338 91.8888 95.9075 89.4393 97.5375 86.7183C99.161 84.0079 101.872 83.2411 104.469 84.7295C107.066 86.2178 107.66 88.9302 106.063 91.6423C104.429 94.3902 101.836 94.838 99.0458 93.7238Z" fill="#F54748"/>
<path d="M39.6129 50.735C37.6556 53.2298 35.2211 54.1935 32.6394 52.7003C30.0678 51.2131 29.4647 48.5374 31.0591 45.8515C32.66 43.1551 35.3317 42.4074 37.9064 43.8675C40.5212 45.3519 40.7986 47.9312 39.6129 50.735Z" fill="#F54748"/>
<path d="M75.3666 141.779C73.3285 144.138 70.9455 144.931 68.3181 143.511C65.9305 142.237 65.2607 138.365 67.055 136.176C69.0331 133.78 71.6256 133.071 74.0796 134.747C76.5171 136.427 76.7249 139.008 75.3666 141.779Z" fill="#F54748"/>
<path d="M107.665 98.6006C109.984 100.382 110.447 102.64 108.7 105.175C106.922 107.734 104.53 108.102 102.169 106.454C99.9522 104.908 99.6179 102.641 101.165 100.23C102.835 97.6204 105.122 97.246 107.665 98.6006Z" fill="#F54748"/>
<path d="M82.0669 140.056C79.6255 138.229 79.0498 136.018 80.7045 133.457C82.3591 130.895 84.6903 130.316 87.129 131.838C89.5778 133.367 89.9954 135.698 88.3873 138.274C86.7299 140.906 84.4426 141.194 82.0669 140.056Z" fill="#F54748"/>
<path d="M-1.28326 88.6989C-3.54853 86.9211 -3.99856 84.6853 -2.24398 82.184C-0.469789 79.6514 1.8932 79.3089 4.22693 80.955C6.42729 82.5057 6.72164 84.7482 5.17467 87.1155C3.49387 89.7192 1.23351 90.0518 -1.28326 88.6989Z" fill="#F54748"/>
<path d="M97.921 58.2696C100.255 59.9592 100.847 62.1659 99.1632 64.7531C97.4624 67.3447 95.127 67.8195 92.7044 66.2494C90.4417 64.7764 90.0216 62.5586 91.4917 60.1158C93.0926 57.4636 95.3385 56.9778 97.921 58.2696Z" fill="#F54748"/>
<path d="M19.575 55.6969C17.0748 53.9643 16.4033 51.7962 18.0376 49.1787C19.6754 46.5778 21.9735 46.0083 24.4322 47.5425C26.7176 48.9571 27.1903 51.1346 25.7867 53.6033C24.2558 56.2979 22.023 56.7627 19.575 55.6969Z" fill="#F54748"/>
<path d="M48.1877 147.85C46.1716 150.439 43.8996 151.01 41.5123 149.36C39.085 147.686 38.8752 145.264 40.6436 142.785C42.3105 140.446 44.5706 140.026 46.8599 141.458C49.3761 143.056 49.492 145.364 48.1877 147.85Z" fill="#F54748"/>
<path d="M8.5883 129.18C6.10396 127.356 5.55131 125.13 7.26552 122.561C8.98627 119.981 11.3285 119.54 13.7379 121.131C15.9875 122.625 16.3645 124.845 14.8844 127.282C13.2574 129.976 10.9871 130.302 8.5883 129.18Z" fill="#F54748"/>
<path d="M65.8992 44.3974C64.0174 46.7934 61.7818 47.3724 59.4044 45.7287C56.9971 44.0669 56.7877 41.6877 58.5431 39.2294C60.1969 36.9117 62.4305 36.4904 64.6868 37.9307C67.1695 39.4939 67.3747 41.7695 65.8992 44.3974Z" fill="#F54748"/>
<path d="M95.6305 136.348C93.6932 134.552 93.1218 132.445 94.7105 130.32C96.25 128.251 98.5387 127.763 100.553 129.302C102.358 130.67 102.711 132.818 101.353 134.838C99.8678 137.041 97.729 137.245 95.6305 136.348Z" fill="#F54748"/>
<path d="M-4.00527 74.8864C-5.93661 73.4122 -6.51396 71.4023 -5.05847 69.1815C-3.73719 67.1536 -1.64433 66.604 0.330899 67.7873C2.47601 69.0736 2.92223 71.2494 1.47673 73.4762C0.151993 75.4876 -1.83972 75.8532 -4.00527 74.8864Z" fill="#F54748"/>
<path d="M94.3259 45.2562C96.1296 46.5375 96.8746 48.3893 95.7701 50.5774C94.5514 52.9706 92.3674 53.7103 90.1604 52.5453C87.9334 51.3681 87.4404 49.135 88.8159 46.8659C90.0803 44.7747 92.0881 44.3611 94.3259 45.2562Z" fill="#F54748"/>
<path d="M111.778 118.05C110.224 120.096 108.183 120.937 106.018 119.682C103.862 118.433 103.409 116.18 104.772 113.931C106.033 111.867 108.176 111.26 110.19 112.294C112.421 113.444 112.754 115.581 111.778 118.05Z" fill="#F54748"/>
<path d="M10.5508 51.075C12.3411 52.3338 13.0792 54.1526 11.9812 56.3303C10.7756 58.7025 8.61807 59.4439 6.42102 58.2849C4.22051 57.1094 3.71127 54.9242 5.08682 52.6549C6.35468 50.5802 8.32605 50.159 10.5508 51.075Z" fill="#F54748"/>
<path d="M17.7338 140.481C16.1834 142.5 14.1453 143.315 12.0197 142.04C9.90406 140.772 9.45737 138.552 10.8436 136.332C12.1187 134.289 14.2417 133.714 16.2328 134.763C18.4303 135.922 18.7667 138.032 17.7338 140.481Z" fill="#F54748"/>
<path d="M79.0278 40.6998C77.6225 42.6196 75.7202 43.4151 73.653 42.3782C71.3894 41.2366 70.7904 39.0399 72.1197 36.7565C73.4456 34.4565 75.6877 33.867 77.8402 35.1866C79.7962 36.4016 80.0622 38.4252 79.0278 40.6998Z" fill="#F54748"/>
<path d="M28.5694 152.316C26.6673 150.773 26.0301 148.726 27.4724 146.527C28.9017 144.348 31.1505 143.835 33.2233 145.193C35.1062 146.436 35.542 148.562 34.3138 150.617C32.9648 152.888 30.864 153.274 28.5694 152.316Z" fill="#F54748"/>
<path d="M72.2443 155.729C70.3402 154.343 69.927 152.534 71.3636 150.432C72.666 148.522 74.4752 148.118 76.3209 149.266C78.3764 150.541 78.6712 152.452 77.2576 154.54C75.9621 156.482 74.2015 156.742 72.2443 155.729Z" fill="#F54748"/>
<path d="M113.746 69.1346C115.852 70.5708 116.391 72.3119 115.018 74.467C113.782 76.4023 112.02 76.9073 110.135 75.8221C108.064 74.6383 107.66 72.7913 108.984 70.6494C110.229 68.6766 111.963 68.4147 113.746 69.1346Z" fill="#F54748"/>
<path d="M62.9656 152.465C64.7398 153.772 65.2314 155.456 64.0259 157.453C62.7157 159.618 60.8447 160.143 58.7991 158.874C56.9434 157.72 56.5636 155.945 57.7427 153.946C59.0559 151.755 60.8885 151.379 62.9656 152.465Z" fill="#F54748"/>
<path d="M116.98 82.5502C119.086 83.9864 119.628 85.744 118.249 87.9097C117.006 89.8554 115.238 90.3709 113.333 89.2735C111.252 88.0837 110.835 86.2142 112.181 84.0573C113.417 82.0785 115.164 81.7956 116.98 82.5502Z" fill="#F54748"/>
<path d="M48.5123 33.5804C47.1292 35.3982 45.4339 35.9727 43.5613 34.8228C41.4988 33.5577 41.217 31.6255 42.6677 29.5889C43.9939 27.7078 45.8241 27.4028 47.6309 28.6139C49.4578 29.8371 49.6054 31.5869 48.5123 33.5804Z" fill="#F54748"/>
<path d="M111.775 60.785C110.526 62.4535 108.888 63.1349 107.15 62.2109C105.216 61.1822 104.792 59.2792 106.034 57.333C107.153 55.5858 108.956 55.1485 110.658 56.1518C112.374 57.1778 112.557 58.8918 111.775 60.785Z" fill="#F54748"/>
<path d="M61.7968 30.2105C60.4845 31.7826 58.8429 32.4475 57.167 31.4458C55.3212 30.341 54.9368 28.4186 56.2499 26.5583C57.4157 24.9119 59.2284 24.4806 60.8719 25.5783C62.5055 26.6699 62.6428 28.3701 61.7968 30.2105Z" fill="#F54748"/>
<path d="M85.8012 152.362C84.176 151.016 83.6574 149.287 84.9863 147.379C86.1679 145.685 87.95 145.236 89.6157 146.275C91.4548 147.433 91.8122 149.31 90.5099 151.219C89.3252 152.94 87.6208 153.177 85.8012 152.362Z" fill="#F54748"/>
<path d="M30.1822 38.1495C28.2975 36.6891 27.8158 35.0114 29.0648 33.0552C30.4379 30.9001 32.3565 30.5191 34.3001 31.8853C36.0804 33.138 36.2718 34.9716 34.9759 36.8705C33.654 38.8113 31.8988 38.9305 30.1822 38.1495Z" fill="#F54748"/>
<path d="M116.333 102.359C114.846 100.923 114.367 99.1751 115.793 97.355C117.032 95.768 118.841 95.3639 120.431 96.5015C122.158 97.7508 122.45 99.645 121.057 101.456C119.809 103.081 118.097 103.284 116.333 102.359Z" fill="#F54748"/>
<path d="M0.404611 130.104C-0.967626 131.64 -2.60651 132.234 -4.2927 131.183C-5.96889 130.138 -6.36875 128.35 -5.28022 126.585C-4.06746 124.621 -2.14907 124.152 -0.361808 125.395C1.23862 126.495 1.3532 128.254 0.404611 130.104Z" fill="#F54748"/>
<path d="M49.1954 155.69C50.9609 157.164 51.509 158.868 50.2232 160.773C49.0747 162.458 47.2961 162.923 45.6339 161.901C43.8019 160.776 43.4479 158.916 44.6971 157.003C45.8387 155.285 47.5607 155.175 49.1954 155.69Z" fill="#F54748"/>
<path d="M21.4572 39.8715C20.0618 41.4221 18.3998 42.0314 16.7428 40.9111C15.1093 39.8195 14.7721 37.998 15.9371 36.2645C17.1057 34.5475 18.9149 34.0997 20.575 35.193C22.2185 36.2906 22.3462 38.0284 21.4572 39.8715Z" fill="#F54748"/>
<path d="M113.996 130.95C112.747 132.575 111.277 133.055 109.73 132.088C108.184 131.122 107.862 129.541 108.902 127.919C109.942 126.298 111.517 125.895 113.069 126.851C114.632 127.813 114.778 129.345 113.996 130.95Z" fill="#F54748"/>
<path d="M36.4473 163.152C35.4131 164.676 34.2111 165.189 32.8733 164.551C31.3425 163.824 30.89 162.453 31.8077 160.873C32.7188 159.303 34.1245 158.972 35.5707 159.878C36.8669 160.692 36.8813 161.971 36.4473 163.152Z" fill="#F54748"/>
<path d="M14.8876 150.41C16.2618 148.717 17.7437 148.374 19.218 149.456C20.7223 150.556 20.7958 152.159 19.6289 153.675C18.5931 155.025 17.1504 155.305 15.7572 154.403C14.184 153.391 14.1348 151.903 14.8876 150.41Z" fill="#F54748"/>
<path d="M3.00069 142.973C1.93837 144.321 0.646304 144.78 -0.763872 143.838C-1.97413 143.017 -2.23068 141.707 -1.41331 140.398C-0.478231 138.9 0.924129 138.552 2.32085 139.471C3.55418 140.277 3.65467 141.551 3.00069 142.973Z" fill="#F54748"/>
<path d="M74.5248 26.601C73.5375 27.8071 72.312 28.2911 71.0359 27.5318C69.58 26.6634 69.3089 25.1996 70.3704 23.7643C71.2747 22.5368 72.6344 22.2351 73.8715 23.1008C75.0852 23.9378 75.1923 25.201 74.5248 26.601Z" fill="#F54748"/>
<path d="M91.4156 36.9717C90.0649 38.6936 88.5753 38.9164 87.1041 37.8078C85.7763 36.8006 85.6444 35.3346 86.6628 33.9022C87.8416 32.2349 89.3881 32.0754 90.8593 33.184C92.2101 34.1764 92.2025 35.601 91.4156 36.9717Z" fill="#F54748"/>
<path d="M107.901 46.9815C106.621 48.4577 105.268 48.836 103.947 47.8182C102.822 46.9486 102.592 45.5961 103.506 44.3311C104.531 42.888 105.951 42.6227 107.285 43.6196C108.453 44.4864 108.421 45.7954 107.901 46.9815Z" fill="#F54748"/>
<path d="M7.40566 42.5762C6.43839 43.7943 5.20637 44.2889 3.93386 43.5461C2.46489 42.6987 2.18723 41.2454 3.2253 39.7815C4.11607 38.5314 5.46915 38.2403 6.71588 39.0684C7.94954 39.9175 8.05653 41.1807 7.40566 42.5762Z" fill="#F54748"/>
<path d="M124.022 113.96C122.876 115.574 121.607 116.018 120.147 115.133C118.878 114.363 118.549 113.124 119.266 111.755C120.068 110.205 121.386 109.662 122.917 110.431C124.452 111.218 124.576 112.563 124.022 113.96Z" fill="#F54748"/>
<path d="M103.439 147.402C102.428 148.824 101.152 149.278 99.6928 148.393C98.4234 147.624 98.0946 146.385 98.8119 145.015C99.6139 143.466 100.938 142.912 102.463 143.692C103.961 144.471 104.211 145.791 103.439 147.402Z" fill="#F54748"/>
</g>
<defs>
<filter id="filter0_f_111_408" x="-21.8584" y="18.6064" width="150.182" height="150.213" filterUnits="userSpaceOnUse" color-interpolation-filters="sRGB">
<feFlood flood-opacity="0" result="BackgroundImageFix"/>
<feBlend mode="normal" in="SourceGraphic" in2="BackgroundImageFix" result="shape"/>
<feGaussianBlur stdDeviation="2" result="effect1_foregroundBlur_111_408"/>
</filter>
</defs>
</svg>
