<svg width="111" height="11" viewBox="0 0 111 11" fill="none" xmlns="http://www.w3.org/2000/svg">
<path d="M3.69933 7.38833C3.02422 7.38833 2.40422 7.22989 1.83933 6.913C1.27444 6.59611 0.826667 6.15867 0.496 5.60067C0.165333 5.03578 0 4.39856 0 3.689C0 2.98633 0.165333 2.356 0.496 1.798C0.826667 1.23311 1.27444 0.792222 1.83933 0.475333C2.40422 0.158444 3.02422 0 3.69933 0C4.38133 0 5.00133 0.158444 5.55933 0.475333C6.12422 0.792222 6.56856 1.23311 6.89233 1.798C7.223 2.356 7.38833 2.98633 7.38833 3.689C7.38833 4.39856 7.223 5.03578 6.89233 5.60067C6.56856 6.15867 6.12422 6.59611 5.55933 6.913C4.99444 7.22989 4.37444 7.38833 3.69933 7.38833ZM3.69933 6.09667C4.13333 6.09667 4.51567 6.00022 4.84633 5.80733C5.177 5.60756 5.43533 5.32511 5.62133 4.96C5.80733 4.59489 5.90033 4.17122 5.90033 3.689C5.90033 3.20678 5.80733 2.78656 5.62133 2.42833C5.43533 2.06322 5.177 1.78422 4.84633 1.59133C4.51567 1.39844 4.13333 1.302 3.69933 1.302C3.26533 1.302 2.87956 1.39844 2.542 1.59133C2.21133 1.78422 1.953 2.06322 1.767 2.42833C1.581 2.78656 1.488 3.20678 1.488 3.689C1.488 4.17122 1.581 4.59489 1.767 4.96C1.953 5.32511 2.21133 5.60756 2.542 5.80733C2.87956 6.00022 3.26533 6.09667 3.69933 6.09667Z" fill="#575757"/>
<path d="M13.8689 1.59133V7.316H12.4119V6.59267C12.2259 6.84067 11.9814 7.037 11.6783 7.18167C11.3821 7.31944 11.0583 7.38833 10.7069 7.38833C10.2592 7.38833 9.86306 7.29533 9.51861 7.10933C9.17417 6.91645 8.90206 6.63745 8.70228 6.27233C8.50939 5.90033 8.41295 5.45944 8.41295 4.94967V1.59133H9.85961V4.743C9.85961 5.19767 9.97328 5.549 10.2006 5.797C10.4279 6.03811 10.7379 6.15867 11.1306 6.15867C11.5302 6.15867 11.8436 6.03811 12.0709 5.797C12.2983 5.549 12.4119 5.19767 12.4119 4.743V1.59133H13.8689Z" fill="#575757"/>
<path d="M16.743 2.48C16.929 2.17689 17.1701 1.93922 17.4663 1.767C17.7694 1.59478 18.1139 1.50867 18.4997 1.50867V3.02767H18.1173C17.6627 3.02767 17.3182 3.13444 17.084 3.348C16.8567 3.56156 16.743 3.93356 16.743 4.464V7.316H15.2963V1.59133H16.743V2.48Z" fill="#575757"/>
<path d="M27.9193 0.103333V7.316H26.4726V4.247H23.383V7.316H21.9363V0.103333H23.383V3.069H26.4726V0.103333H27.9193Z" fill="#575757"/>
<path d="M28.9712 4.433C28.9712 3.85433 29.0849 3.34111 29.3122 2.89333C29.5464 2.44556 29.8599 2.10111 30.2525 1.86C30.6521 1.61889 31.0964 1.49833 31.5855 1.49833C32.0126 1.49833 32.3846 1.58444 32.7015 1.75667C33.0253 1.92889 33.2836 2.14589 33.4765 2.40767V1.59133H34.9335V7.316H33.4765V6.479C33.2905 6.74767 33.0322 6.97156 32.7015 7.15067C32.3778 7.32289 32.0023 7.409 31.5752 7.409C31.093 7.409 30.6521 7.285 30.2525 7.037C29.8599 6.789 29.5464 6.44111 29.3122 5.99333C29.0849 5.53867 28.9712 5.01856 28.9712 4.433ZM33.4765 4.45367C33.4765 4.10233 33.4076 3.80267 33.2699 3.55467C33.1321 3.29978 32.9461 3.10689 32.7119 2.976C32.4776 2.83822 32.2262 2.76933 31.9575 2.76933C31.6889 2.76933 31.4409 2.83478 31.2135 2.96567C30.9862 3.09656 30.8002 3.28944 30.6555 3.54433C30.5177 3.79233 30.4489 4.08856 30.4489 4.433C30.4489 4.77744 30.5177 5.08056 30.6555 5.34233C30.8002 5.59722 30.9862 5.79356 31.2135 5.93133C31.4477 6.06911 31.6957 6.138 31.9575 6.138C32.2262 6.138 32.4776 6.07256 32.7119 5.94167C32.9461 5.80389 33.1321 5.611 33.2699 5.363C33.4076 5.10811 33.4765 4.805 33.4765 4.45367Z" fill="#575757"/>
<path d="M37.7931 2.418C37.9791 2.15622 38.234 1.93922 38.5578 1.767C38.8884 1.58789 39.2639 1.49833 39.6841 1.49833C40.1732 1.49833 40.6141 1.61889 41.0068 1.86C41.4063 2.10111 41.7198 2.44556 41.9471 2.89333C42.1813 3.33422 42.2985 3.84744 42.2985 4.433C42.2985 5.01856 42.1813 5.53867 41.9471 5.99333C41.7198 6.44111 41.4063 6.789 41.0068 7.037C40.6141 7.285 40.1732 7.409 39.6841 7.409C39.2639 7.409 38.8919 7.32289 38.5681 7.15067C38.2512 6.97844 37.9929 6.76145 37.7931 6.49967V10.044H36.3464V1.59133H37.7931V2.418ZM40.8208 4.433C40.8208 4.08856 40.7484 3.79233 40.6038 3.54433C40.466 3.28944 40.28 3.09656 40.0458 2.96567C39.8184 2.83478 39.5704 2.76933 39.3018 2.76933C39.04 2.76933 38.792 2.83822 38.5578 2.976C38.3304 3.10689 38.1445 3.29978 37.9998 3.55467C37.862 3.80956 37.7931 4.10922 37.7931 4.45367C37.7931 4.79811 37.862 5.09778 37.9998 5.35267C38.1445 5.60756 38.3304 5.80389 38.5578 5.94167C38.792 6.07256 39.04 6.138 39.3018 6.138C39.5704 6.138 39.8184 6.06911 40.0458 5.93133C40.28 5.79356 40.466 5.59722 40.6038 5.34233C40.7484 5.08744 40.8208 4.78433 40.8208 4.433Z" fill="#575757"/>
<path d="M44.7964 2.418C44.9824 2.15622 45.2373 1.93922 45.561 1.767C45.8917 1.58789 46.2672 1.49833 46.6874 1.49833C47.1765 1.49833 47.6174 1.61889 48.01 1.86C48.4096 2.10111 48.723 2.44556 48.9504 2.89333C49.1846 3.33422 49.3017 3.84744 49.3017 4.433C49.3017 5.01856 49.1846 5.53867 48.9504 5.99333C48.723 6.44111 48.4096 6.789 48.01 7.037C47.6174 7.285 47.1765 7.409 46.6874 7.409C46.2672 7.409 45.8951 7.32289 45.5714 7.15067C45.2545 6.97844 44.9962 6.76145 44.7964 6.49967V10.044H43.3497V1.59133H44.7964V2.418ZM47.824 4.433C47.824 4.08856 47.7517 3.79233 47.607 3.54433C47.4693 3.28944 47.2833 3.09656 47.049 2.96567C46.8217 2.83478 46.5737 2.76933 46.305 2.76933C46.0433 2.76933 45.7953 2.83822 45.561 2.976C45.3337 3.10689 45.1477 3.29978 45.003 3.55467C44.8653 3.80956 44.7964 4.10922 44.7964 4.45367C44.7964 4.79811 44.8653 5.09778 45.003 5.35267C45.1477 5.60756 45.3337 5.80389 45.561 5.94167C45.7953 6.07256 46.0433 6.138 46.305 6.138C46.5737 6.138 46.8217 6.06911 47.049 5.93133C47.2833 5.79356 47.4693 5.59722 47.607 5.34233C47.7517 5.08744 47.824 4.78433 47.824 4.433Z" fill="#575757"/>
<path d="M55.8296 1.59133L52.2853 10.0233H50.7456L51.9856 7.17133L49.6916 1.59133H51.314L52.7916 5.59033L54.29 1.59133H55.8296Z" fill="#575757"/>
<path d="M58.7204 3.69933C58.7204 2.98978 58.8788 2.356 59.1957 1.798C59.5195 1.23311 59.9569 0.795666 60.508 0.485667C61.066 0.168778 61.6895 0.0103332 62.3784 0.0103332C63.1844 0.0103332 63.8905 0.217 64.4967 0.630333C65.1029 1.04367 65.5266 1.61544 65.7677 2.34567H64.104C63.9387 2.00122 63.7045 1.74289 63.4014 1.57067C63.1052 1.39844 62.7607 1.31233 62.368 1.31233C61.9478 1.31233 61.5724 1.41222 61.2417 1.612C60.9179 1.80489 60.663 2.08044 60.477 2.43867C60.2979 2.79689 60.2084 3.21711 60.2084 3.69933C60.2084 4.17467 60.2979 4.59489 60.477 4.96C60.663 5.31822 60.9179 5.59722 61.2417 5.797C61.5724 5.98989 61.9478 6.08633 62.368 6.08633C62.7607 6.08633 63.1052 6.00022 63.4014 5.828C63.7045 5.64889 63.9387 5.38711 64.104 5.04267H65.7677C65.5266 5.77978 65.1029 6.355 64.4967 6.76833C63.8974 7.17478 63.1913 7.378 62.3784 7.378C61.6895 7.378 61.066 7.223 60.508 6.913C59.9569 6.59611 59.5195 6.15867 59.1957 5.60067C58.8788 5.04267 58.7204 4.40889 58.7204 3.69933Z" fill="#575757"/>
<path d="M72.4077 1.59133V7.316H70.9507V6.59267C70.7647 6.84067 70.5201 7.037 70.217 7.18167C69.9208 7.31944 69.597 7.38833 69.2457 7.38833C68.7979 7.38833 68.4018 7.29533 68.0574 7.10933C67.7129 6.91645 67.4408 6.63745 67.241 6.27233C67.0481 5.90033 66.9517 5.45944 66.9517 4.94967V1.59133H68.3984V4.743C68.3984 5.19767 68.512 5.549 68.7393 5.797C68.9667 6.03811 69.2767 6.15867 69.6693 6.15867C70.0689 6.15867 70.3824 6.03811 70.6097 5.797C70.837 5.549 70.9507 5.19767 70.9507 4.743V1.59133H72.4077Z" fill="#575757"/>
<path d="M76.0257 7.409C75.5573 7.409 75.1371 7.32633 74.7651 7.161C74.3931 6.98878 74.0968 6.758 73.8764 6.46867C73.6628 6.17933 73.5457 5.859 73.5251 5.50767H74.9821C75.0096 5.72811 75.1164 5.91067 75.3024 6.05533C75.4953 6.2 75.7329 6.27233 76.0154 6.27233C76.2909 6.27233 76.5045 6.21722 76.6561 6.107C76.8145 5.99678 76.8937 5.85556 76.8937 5.68333C76.8937 5.49733 76.7973 5.35956 76.6044 5.27C76.4184 5.17356 76.1187 5.07022 75.7054 4.96C75.2783 4.85667 74.9269 4.74989 74.6514 4.63967C74.3827 4.52944 74.1485 4.36067 73.9487 4.13333C73.7558 3.906 73.6594 3.59944 73.6594 3.21367C73.6594 2.89678 73.7489 2.60744 73.9281 2.34567C74.1141 2.08389 74.3758 1.87722 74.7134 1.72567C75.0578 1.57411 75.4608 1.49833 75.9224 1.49833C76.6044 1.49833 77.1486 1.67056 77.5551 2.015C77.9615 2.35256 78.1854 2.81067 78.2267 3.38933H76.8421C76.8214 3.162 76.7249 2.98289 76.5527 2.852C76.3874 2.71422 76.1635 2.64533 75.8811 2.64533C75.6193 2.64533 75.4161 2.69356 75.2714 2.79C75.1336 2.88644 75.0647 3.02078 75.0647 3.193C75.0647 3.38589 75.1612 3.534 75.3541 3.63733C75.5469 3.73378 75.8466 3.83367 76.2531 3.937C76.6664 4.04033 77.0074 4.14711 77.2761 4.25733C77.5447 4.36756 77.7755 4.53978 77.9684 4.774C78.1682 5.00133 78.2715 5.30444 78.2784 5.68333C78.2784 6.014 78.1854 6.31022 77.9994 6.572C77.8203 6.83378 77.5585 7.04045 77.2141 7.192C76.8765 7.33667 76.4804 7.409 76.0257 7.409Z" fill="#575757"/>
<path d="M81.1502 2.77967V5.549C81.1502 5.74189 81.195 5.88311 81.2846 5.97267C81.381 6.05533 81.5395 6.09667 81.7599 6.09667H82.4316V7.316H81.5222C80.3029 7.316 79.6933 6.72356 79.6933 5.53867V2.77967H79.0113V1.59133H79.6933V0.175666H81.1502V1.59133H82.4316V2.77967H81.1502Z" fill="#575757"/>
<path d="M86.0141 7.409C85.463 7.409 84.967 7.28844 84.5261 7.04733C84.0852 6.79933 83.7373 6.45145 83.4824 6.00367C83.2344 5.55589 83.1104 5.03922 83.1104 4.45367C83.1104 3.86811 83.2379 3.35144 83.4928 2.90367C83.7545 2.45589 84.1093 2.11144 84.5571 1.87033C85.0049 1.62233 85.5043 1.49833 86.0554 1.49833C86.6065 1.49833 87.106 1.62233 87.5538 1.87033C88.0015 2.11144 88.3529 2.45589 88.6078 2.90367C88.8695 3.35144 89.0004 3.86811 89.0004 4.45367C89.0004 5.03922 88.8661 5.55589 88.5974 6.00367C88.3357 6.45145 87.9774 6.79933 87.5228 7.04733C87.075 7.28844 86.5721 7.409 86.0141 7.409ZM86.0141 6.14833C86.2759 6.14833 86.5204 6.08633 86.7478 5.96233C86.982 5.83144 87.168 5.63856 87.3058 5.38367C87.4435 5.12878 87.5124 4.81878 87.5124 4.45367C87.5124 3.90944 87.3678 3.49267 87.0784 3.20333C86.796 2.90711 86.4481 2.759 86.0348 2.759C85.6214 2.759 85.2735 2.90711 84.9911 3.20333C84.7155 3.49267 84.5778 3.90944 84.5778 4.45367C84.5778 4.99789 84.7121 5.41811 84.9808 5.71433C85.2563 6.00367 85.6008 6.14833 86.0141 6.14833Z" fill="#575757"/>
<path d="M97.171 1.50867C97.8736 1.50867 98.4385 1.72567 98.8656 2.15967C99.2996 2.58678 99.5166 3.18611 99.5166 3.95767V7.316H98.07V4.154C98.07 3.70622 97.9563 3.36522 97.729 3.131C97.5016 2.88989 97.1916 2.76933 96.799 2.76933C96.4063 2.76933 96.0928 2.88989 95.8586 3.131C95.6313 3.36522 95.5176 3.70622 95.5176 4.154V7.316H94.0709V4.154C94.0709 3.70622 93.9573 3.36522 93.7299 3.131C93.5026 2.88989 93.1926 2.76933 92.7999 2.76933C92.4004 2.76933 92.0835 2.88989 91.8493 3.131C91.6219 3.36522 91.5083 3.70622 91.5083 4.154V7.316H90.0616V1.59133H91.5083V2.28367C91.6943 2.04256 91.932 1.85311 92.2213 1.71533C92.5175 1.57756 92.8413 1.50867 93.1926 1.50867C93.6404 1.50867 94.0399 1.60511 94.3913 1.798C94.7426 1.984 95.0147 2.25267 95.2076 2.604C95.3936 2.27333 95.6623 2.00811 96.0136 1.80833C96.3718 1.60856 96.7576 1.50867 97.171 1.50867Z" fill="#575757"/>
<path d="M106.211 4.32967C106.211 4.53633 106.197 4.72233 106.17 4.88767H101.985C102.019 5.301 102.164 5.62478 102.419 5.859C102.674 6.09322 102.987 6.21033 103.359 6.21033C103.896 6.21033 104.279 5.97956 104.506 5.518H106.066C105.901 6.06911 105.584 6.52378 105.116 6.882C104.647 7.23333 104.072 7.409 103.39 7.409C102.839 7.409 102.343 7.28844 101.902 7.04733C101.468 6.79933 101.127 6.45145 100.879 6.00367C100.638 5.55589 100.517 5.03922 100.517 4.45367C100.517 3.86122 100.638 3.34111 100.879 2.89333C101.12 2.44556 101.458 2.10111 101.892 1.86C102.326 1.61889 102.825 1.49833 103.39 1.49833C103.934 1.49833 104.42 1.61544 104.847 1.84967C105.281 2.08389 105.615 2.418 105.849 2.852C106.091 3.27911 106.211 3.77167 106.211 4.32967ZM104.713 3.91633C104.706 3.54433 104.572 3.24811 104.31 3.02767C104.048 2.80033 103.728 2.68667 103.349 2.68667C102.991 2.68667 102.687 2.79689 102.439 3.01733C102.198 3.23089 102.05 3.53056 101.995 3.91633H104.713Z" fill="#575757"/>
<path d="M108.714 2.48C108.9 2.17689 109.141 1.93922 109.437 1.767C109.74 1.59478 110.085 1.50867 110.47 1.50867V3.02767H110.088C109.633 3.02767 109.289 3.13444 109.055 3.348C108.827 3.56156 108.714 3.93356 108.714 4.464V7.316H107.267V1.59133H108.714V2.48Z" fill="#575757"/>
</svg>
