<svg width="23" height="22" viewBox="0 0 23 22" fill="none" xmlns="http://www.w3.org/2000/svg">
<path d="M10.2882 0.690721C10.5876 -0.23059 11.891 -0.230588 12.1903 0.690722L14.1579 6.74645C14.2918 7.15847 14.6758 7.43743 15.109 7.43743H21.4764C22.4451 7.43743 22.8479 8.67705 22.0642 9.24645L16.9128 12.9891C16.5624 13.2437 16.4157 13.6951 16.5496 14.1071L18.5172 20.1629C18.8165 21.0842 17.7621 21.8503 16.9784 21.2809L11.827 17.5382C11.4766 17.2836 11.002 17.2836 10.6515 17.5382L5.50016 21.2809C4.71645 21.8503 3.66197 21.0842 3.96132 20.1629L5.92895 14.1071C6.06282 13.6951 5.91616 13.2437 5.56567 12.9891L0.414363 9.24645C-0.36935 8.67705 0.033426 7.43743 1.00215 7.43743H7.36952C7.80275 7.43743 8.1867 7.15847 8.32058 6.74645L10.2882 0.690721Z" fill="#FFB800"/>
</svg>
