<svg width="51" height="40" viewBox="0 0 51 40" fill="none" xmlns="http://www.w3.org/2000/svg">
<path d="M24.25 39.751C13.5495 39.751 4.875 31.0765 4.875 20.376C4.875 9.67546 13.5495 1.00098 24.25 1.00098C34.9505 1.00098 43.625 9.67546 43.625 20.376C43.625 31.0765 34.9505 39.751 24.25 39.751Z" fill="#FFDA6A"/>
<g filter="url(#filter0_f_33_318)">
<path d="M35.4452 24.2512C33.5429 24.2512 32.0008 22.7091 32.0008 20.8067C32.0008 18.9044 33.5429 17.3623 35.4452 17.3623C37.3475 17.3623 38.8896 18.9044 38.8896 20.8067C38.8896 22.7091 37.3475 24.2512 35.4452 24.2512Z" fill="#F55065"/>
</g>
<g filter="url(#filter1_f_33_318)">
<path d="M15.2089 18.6535C13.3066 18.6535 11.7644 17.1114 11.7644 15.2091C11.7644 13.3068 13.3066 11.7646 15.2089 11.7646C17.1112 11.7646 18.6533 13.3068 18.6533 15.2091C18.6533 17.1114 17.1112 18.6535 15.2089 18.6535Z" fill="#F55065"/>
</g>
<path fill-rule="evenodd" clip-rule="evenodd" d="M29.093 13.3546C29.9747 10.6408 32.8895 9.15559 35.6033 10.0374C38.3171 10.9191 39.8023 13.8339 38.9205 16.5477C38.7736 17 38.2878 17.2476 37.8355 17.1006C37.3832 16.9536 37.1356 16.4678 37.2826 16.0155C37.8705 14.2063 36.8803 12.2631 35.0711 11.6753C33.2619 11.0874 31.3187 12.0776 30.7309 13.8868C30.5839 14.3391 30.0981 14.5866 29.6458 14.4396C29.1935 14.2927 28.946 13.8069 29.093 13.3546ZM15.3152 9.04901C16.1969 6.3352 19.1117 4.85004 21.8256 5.73181C24.5394 6.61358 26.0245 9.52838 25.1428 12.2422C24.9958 12.6945 24.51 12.942 24.0577 12.7951C23.6054 12.6481 23.3579 12.1623 23.5048 11.71C24.0927 9.90078 23.1026 7.95759 21.2934 7.36974C19.4841 6.78189 17.541 7.772 16.9531 9.58121C16.8061 10.0335 16.3203 10.281 15.868 10.1341C15.4157 9.98711 15.1682 9.50131 15.3152 9.04901ZM33.2015 21.6222C32.7004 22.6243 29.7969 23.8272 27.1901 23.9274C23.4525 24.0712 20.1496 22.2996 17.899 18.2076C17.6698 17.7909 17.8218 17.2673 18.2385 17.0381C18.6552 16.8089 19.1788 16.9609 19.408 17.3777C21.337 20.8849 24.0233 22.3257 27.1239 22.2065C28.282 22.1619 29.4347 21.8913 30.4333 21.4776C30.8338 21.3116 31.1846 21.1316 31.4451 20.9646C31.5521 20.896 31.6364 20.8342 31.6912 20.7863C31.7018 20.7771 31.6942 20.7857 31.6611 20.852C31.8738 20.4266 32.391 20.2542 32.8164 20.4669C33.2418 20.6796 33.4142 21.1968 33.2015 21.6222Z" fill="black"/>
<defs>
<filter id="filter0_f_33_318" x="20.2363" y="5.5976" width="30.4181" height="30.4181" filterUnits="userSpaceOnUse" color-interpolation-filters="sRGB">
<feFlood flood-opacity="0" result="BackgroundImageFix"/>
<feBlend mode="normal" in="SourceGraphic" in2="BackgroundImageFix" result="shape"/>
<feGaussianBlur stdDeviation="5.88235" result="effect1_foregroundBlur_33_318"/>
</filter>
<filter id="filter1_f_33_318" x="-5.72205e-05" y="-5.72205e-05" width="30.4181" height="30.4181" filterUnits="userSpaceOnUse" color-interpolation-filters="sRGB">
<feFlood flood-opacity="0" result="BackgroundImageFix"/>
<feBlend mode="normal" in="SourceGraphic" in2="BackgroundImageFix" result="shape"/>
<feGaussianBlur stdDeviation="5.88235" result="effect1_foregroundBlur_33_318"/>
</filter>
</defs>
</svg>
